# xmcd CD database file
#
# Track frame offsets:
#	150
#	13987
#	30129
#	45889
#	58937
#	74295
#	93500
#	108904
#	127672
#	141362
#	157693
#	170986
#	188007
#	205561
#	216210
#	233113
#	245446
#	262638
#	278696
#	292207
#
# Disc length: 4126 seconds
#
# Revision: 4
# Processed by: cddbd v1.5.2PL0 Copyright (c) Steve Scherf et al.
# Submitted via: cdripper 1,0,33,916
#
DISCID=11101c14
DTITLE=Sexteto Mayor - Members Of Tango Passion`s Show
DYEAR=1997
DGENRE=Tango
TTITLE0=Orlando Goñi
TTITLE1=Mal De Amores
TTITLE2=Contrabajeando
TTITLE3=El Firulete
TTITLE4=Taconeando
TTITLE5=Halcon Negro
TTITLE6=La Casita De Mis Viejos
TTITLE7=Verano Porteño
TTITLE8=Un Placer
TTITLE9=Canaro En Paris
TTITLE10=Tema Otoñal
TTITLE11=Orgullo Criollo
TTITLE12=Kicho
TTITLE13=Taquito Militar
TTITLE14=La Cachila
TTITLE15=Tecleando
TTITLE16=Nostalgias
TTITLE17=Invierno Porteño
TTITLE18=La Flor De La Canela
TTITLE19=La Cumparsita
EXTD=YEAR: 1997
EXTT0=
EXTT1=
EXTT2=
EXTT3=
EXTT4=
EXTT5=
EXTT6=
EXTT7=
EXTT8=
EXTT9=
EXTT10=
EXTT11=
EXTT12=
EXTT13=
EXTT14=
EXTT15=
EXTT16=
EXTT17=
EXTT18=
EXTT19=
PLAYORDER=
